<?xml version="1.0" encoding="utf-8"?>
<!-- Generator: Adobe Illustrator 28.2.0, SVG Export Plug-In . SVG Version: 6.00 Build 0)  -->
<svg version="1.1" id="Layer_1" xmlns="http://www.w3.org/2000/svg" xmlns:xlink="http://www.w3.org/1999/xlink" x="0px" y="0px"
	 viewBox="0 0 300 56" style="enable-background:new 0 0 300 56;" xml:space="preserve">
<style type="text/css">
	.st0{fill:#00AEEF;}
	.st1{fill:#FFFFFF;}
	.st2{font-family:'Poppins-SemiBold';}
	.st3{font-size:35px;}
	.st4{fill:#25B6D2;}
	.st5{font-family:'Poppins-Medium';}
	.st6{font-size:6.1687px;}
</style>
<g>
	<path class="st0" d="M25.9,29.1"/>
	
		<image style="overflow:visible;enable-background:new    ;" width="512" height="512" xlink:href="../../../Downloads/favpng_2cbc849c4ed4a72cf0f8cf5abf21b4a1.png"  transform="matrix(0.1576 0 0 0.1576 13.306 -13.8462)">
	</image>
	<g>
		<path class="st1" d="M48.8,25.2c-4.3,0-8.5,0-12.8,0c-1.9,0-2.8-0.9-2.8-2.8s0-3.7,0-5.6S34,14,36,14c5.7,0,11.3,0,17,0
			c2.9,0,5.8,0,8.7,0c2,0,2.9,0.9,2.9,2.9c0,1.8,0,3.7,0,5.5c0,1.9-0.9,2.8-2.8,2.8C57.4,25.2,53.1,25.2,48.8,25.2L48.8,25.2z
			 M44.1,19.7c0-0.8-0.7-1.5-1.5-1.5s-1.4,0.7-1.4,1.5s0.7,1.4,1.5,1.4C43.6,21.1,44.1,20.5,44.1,19.7z M38,21.1
			c0.8,0,1.4-0.6,1.4-1.5c0-0.8-0.7-1.5-1.5-1.5s-1.4,0.7-1.4,1.6C36.6,20.6,37.2,21.2,38,21.1z"/>
		<path class="st1" d="M48.8,50.5c-4.3,0-8.6,0-12.9,0c-1.9,0-2.7-0.9-2.7-2.8c0-1.8,0-3.7,0-5.5c0-1.7,0.9-2.6,2.6-2.6
			c7.1,0,14.2,0,21.3,0c0.3,0,0.7,0.2,0.9,0.4c2,2.1,3.9,4.3,5.9,6.5c0.8,0.8,0.6,1.7,0.3,2.6c-0.3,0.9-1,1.4-2,1.4
			c-1.1,0-2.3,0-3.4,0C55.5,50.5,52.2,50.5,48.8,50.5L48.8,50.5z M44.1,45c0-0.8-0.6-1.5-1.5-1.5c-0.8,0-1.5,0.7-1.5,1.5
			s0.7,1.4,1.5,1.4C43.5,46.5,44.1,45.8,44.1,45z M38,43.5c-0.8,0-1.5,0.6-1.5,1.5c0,0.8,0.6,1.4,1.4,1.4c0.8,0,1.5-0.6,1.5-1.4
			C39.5,44.2,38.9,43.6,38,43.5z"/>
		<path class="st1" d="M64.5,31.7c-1.7-1.4-3.5-1.6-5.3-0.6c-2.6,1.5-3.2,3.9-2.5,6.8c-0.3,0-0.6,0-0.9,0c-6.6,0-13.3,0-19.9,0
			c-1.8,0-2.7-0.9-2.7-2.7c0-2,0-3.9,0-5.9c0-1.6,0.9-2.5,2.5-2.5c8.8,0,17.5,0,26.3,0c1.6,0,2.5,0.9,2.5,2.5
			C64.5,30.1,64.5,30.8,64.5,31.7z M42.7,33.9c0.9,0,1.5-0.6,1.4-1.5c0-0.8-0.6-1.4-1.4-1.4c-0.8,0-1.5,0.6-1.5,1.5
			C41.2,33.3,41.8,33.9,42.7,33.9z M38,33.9c0.8,0,1.4-0.6,1.4-1.4c0-0.8-0.6-1.5-1.5-1.5s-1.5,0.6-1.4,1.5
			C36.6,33.3,37.2,33.9,38,33.9z"/>
		<path class="st1" d="M69.3,40.9c2-2.2,3.9-4.4,5.8-6.6c4.5-5.1,9-10.1,13.5-15.2c1.1-1.2,2.4-1.3,3.5-0.4c1,0.9,1.2,2.7,0.2,3.8
			c-1.6,1.9-3.3,3.7-4.9,5.6C82,34.3,76.7,40.4,71.3,46.5c-1.3,1.4-2.6,1.5-3.9,0c-2.4-2.7-4.8-5.4-7.2-8.1c-0.8-0.9-1.4-1.8-1-3
			c0.3-1,1-1.7,2-1.9c0.9-0.2,1.6,0.2,2.3,0.9C65.4,36.5,67.3,38.7,69.3,40.9z"/>
	</g>
</g>
<g>
	
		<image style="overflow:visible;opacity:0.62;enable-background:new    ;" width="866" height="336" xlink:href="9AE5D327.png"  transform="matrix(0.2404 0 0 0.2404 90.4709 -5.0661)">
	</image>
	<g>
		<text transform="matrix(1 0 0 1 98.2581 32.8617)" class="st1 st2 st3">RateDisco</text>
	</g>
</g>
<g>
	
		<image style="overflow:visible;opacity:0.5;enable-background:new    ;" width="459" height="135" xlink:href="9AE5D325.png"  transform="matrix(0.2413 0 0 0.2413 137.1158 35.807)">
	</image>
	<g>
		<text transform="matrix(1 0 0 1 143.2299 47.5553)" class="st4 st5 st6">Your Reliable Hosting Patner</text>
	</g>
</g>
</svg>
