<?xml version="1.0" encoding="utf-8"?>
<!-- Generator: Adobe Illustrator 28.2.0, SVG Export Plug-In . SVG Version: 6.00 Build 0)  -->
<svg version="1.1" id="Layer_1" xmlns="http://www.w3.org/2000/svg" xmlns:xlink="http://www.w3.org/1999/xlink" x="0px" y="0px"
	 viewBox="0 0 186 35" style="enable-background:new 0 0 186 35;" xml:space="preserve">
<style type="text/css">
	.st0{fill-rule:evenodd;clip-rule:evenodd;fill:#384BFF;}
	.st1{fill:#FFFFFF;}
	.st2{font-family:'Poppins-SemiBold';}
	.st3{font-size:25.9127px;}
	.st4{fill:#25B6D2;}
	.st5{font-family:'Poppins-Medium';}
	.st6{font-size:4.584px;}
</style>
<path class="st0" d="M24.3,15.4v17.3c0,1.3-1.1,2.3-2.3,2.3c-1.3,0-2.3-1.1-2.3-2.3V15.4c0-1.3,1.1-2.3,2.3-2.3
	C23.3,13,24.3,14.1,24.3,15.4z M34.3,10.5c5.6,1.2,9.7,6.2,9.7,12.1C44,29.5,38.5,35,31.6,35h-2.7c-1.2,0-2.2-0.9-2.3-2h0v-0.3v-2.3
	v-9.9c0-1.3,1.1-2.3,2.3-2.3c1.3,0,2.3,1.1,2.3,2.3v9.9h0.3c4.3,0,7.7-3.4,7.7-7.7c0-3.6-2.5-6.7-6-7.5l-3.2-0.7l-0.5-3.2
	C29,7.5,25.8,4.7,22,4.7c-3.8,0-7,2.8-7.6,6.5l-0.5,3.2l-3.2,0.7c-3.5,0.8-6,3.9-6,7.5c0,4.2,3.4,7.7,7.7,7.7h0.3v-9.9
	c0-1.3,1.1-2.3,2.3-2.3c1.3,0,2.3,1.1,2.3,2.3v9.9v2.3V33h0c-0.2,1.1-1.1,2-2.3,2h-2.7C5.5,35,0,29.5,0,22.6
	c0-5.9,4.2-10.9,9.7-12.1C10.7,4.6,15.8,0,22,0C28.2,0,33.3,4.6,34.3,10.5z"/>
<g>
	
		<image style="overflow:visible;opacity:0.62;" width="156" height="60" xlink:href="1F884D60.png"  transform="matrix(1 0 0 1 41.1258 -5.8742)">
	</image>
	<g>
		<text transform="matrix(1 0 0 1 47.913 22.2715)" class="st1 st2 st3">RateDisco</text>
	</g>
</g>
<g>
	
		<image style="overflow:visible;opacity:0.5;" width="83" height="24" xlink:href="1F884D67.png"  transform="matrix(1 0 0 1 84.4507 22.4507)">
	</image>
	<g>
		<text transform="matrix(1 0 0 1 89.5532 31.1973)" class="st4 st5 st6">Your Reliable Hosting Patner</text>
	</g>
</g>
</svg>
